<svg width="97" height="98" viewBox="0 0 97 98" fill="none" xmlns="http://www.w3.org/2000/svg">
<path d="M30.1424 0.714355H26.8091V4.04769H30.1424V0.714355Z" fill="black"/>
<path d="M33.4763 0.714355H30.1429V4.04769H33.4763V0.714355Z" fill="black"/>
<path d="M36.8098 0.714355H33.4764V4.04769H36.8098V0.714355Z" fill="black"/>
<path d="M40.1428 0.714355H36.8094V4.04769H40.1428V0.714355Z" fill="black"/>
<path d="M43.4759 0.714355H40.1426V4.04769H43.4759V0.714355Z" fill="black"/>
<path d="M46.8094 0.714355H43.4761V4.04769H46.8094V0.714355Z" fill="black"/>
<path d="M50.1429 0.714355H46.8096V4.04769H50.1429V0.714355Z" fill="black"/>
<path d="M53.4763 0.714355H50.1429V4.04769H53.4763V0.714355Z" fill="black"/>
<path d="M60.1425 0.714355H56.8092V4.04769H60.1425V0.714355Z" fill="black"/>
<path d="M30.1424 4.04773H26.8091V7.38106H30.1424V4.04773Z" fill="black"/>
<path d="M33.4763 4.04773H30.1429V7.38106H33.4763V4.04773Z" fill="black"/>
<path d="M36.8098 4.04773H33.4764V7.38106H36.8098V4.04773Z" fill="black"/>
<path d="M43.4759 4.04773H40.1426V7.38106H43.4759V4.04773Z" fill="black"/>
<path d="M46.8094 4.04773H43.4761V7.38106H46.8094V4.04773Z" fill="black"/>
<path d="M50.1429 4.04773H46.8096V7.38106H50.1429V4.04773Z" fill="black"/>
<path d="M53.4763 4.04773H50.1429V7.38106H53.4763V4.04773Z" fill="black"/>
<path d="M60.1425 4.04773H56.8092V7.38106H60.1425V4.04773Z" fill="black"/>
<path d="M63.4759 4.04773H60.1426V7.38106H63.4759V4.04773Z" fill="black"/>
<path d="M66.8094 4.04773H63.4761V7.38106H66.8094V4.04773Z" fill="black"/>
<path d="M30.1424 7.3811H26.8091V10.7144H30.1424V7.3811Z" fill="black"/>
<path d="M33.4763 7.3811H30.1429V10.7144H33.4763V7.3811Z" fill="black"/>
<path d="M40.1428 7.3811H36.8094V10.7144H40.1428V7.3811Z" fill="black"/>
<path d="M46.8094 7.3811H43.4761V10.7144H46.8094V7.3811Z" fill="black"/>
<path d="M50.1429 7.3811H46.8096V10.7144H50.1429V7.3811Z" fill="black"/>
<path d="M63.4759 7.3811H60.1426V10.7144H63.4759V7.3811Z" fill="black"/>
<path d="M66.8094 7.3811H63.4761V10.7144H66.8094V7.3811Z" fill="black"/>
<path d="M36.8098 10.7144H33.4764V14.0477H36.8098V10.7144Z" fill="black"/>
<path d="M50.1429 10.7144H46.8096V14.0477H50.1429V10.7144Z" fill="black"/>
<path d="M53.4763 10.7144H50.1429V14.0477H53.4763V10.7144Z" fill="black"/>
<path d="M60.1425 10.7144H56.8092V14.0477H60.1425V10.7144Z" fill="black"/>
<path d="M63.4759 10.7144H60.1426V14.0477H63.4759V10.7144Z" fill="black"/>
<path d="M66.8094 10.7144H63.4761V14.0477H66.8094V10.7144Z" fill="black"/>
<path d="M70.1429 10.7144H66.8096V14.0477H70.1429V10.7144Z" fill="black"/>
<path d="M30.1424 14.0477H26.8091V17.3811H30.1424V14.0477Z" fill="black"/>
<path d="M36.8098 14.0477H33.4764V17.3811H36.8098V14.0477Z" fill="black"/>
<path d="M40.1428 14.0477H36.8094V17.3811H40.1428V14.0477Z" fill="black"/>
<path d="M46.8094 14.0477H43.4761V17.3811H46.8094V14.0477Z" fill="black"/>
<path d="M53.4763 14.0477H50.1429V17.3811H53.4763V14.0477Z" fill="black"/>
<path d="M63.4759 14.0477H60.1426V17.3811H63.4759V14.0477Z" fill="black"/>
<path d="M66.8094 14.0477H63.4761V17.3811H66.8094V14.0477Z" fill="black"/>
<path d="M33.4763 17.381H30.1429V20.7143H33.4763V17.381Z" fill="black"/>
<path d="M40.1428 17.381H36.8094V20.7143H40.1428V17.381Z" fill="black"/>
<path d="M43.4759 17.381H40.1426V20.7143H43.4759V17.381Z" fill="black"/>
<path d="M46.8094 17.381H43.4761V20.7143H46.8094V17.381Z" fill="black"/>
<path d="M50.1429 17.381H46.8096V20.7143H50.1429V17.381Z" fill="black"/>
<path d="M70.1429 17.381H66.8096V20.7143H70.1429V17.381Z" fill="black"/>
<path d="M30.1424 20.7144H26.8091V24.0477H30.1424V20.7144Z" fill="black"/>
<path d="M36.8098 20.7144H33.4764V24.0477H36.8098V20.7144Z" fill="black"/>
<path d="M43.4759 20.7144H40.1426V24.0477H43.4759V20.7144Z" fill="black"/>
<path d="M50.1429 20.7144H46.8096V24.0477H50.1429V20.7144Z" fill="black"/>
<path d="M56.8098 20.7144H53.4764V24.0477H56.8098V20.7144Z" fill="black"/>
<path d="M63.4759 20.7144H60.1426V24.0477H63.4759V20.7144Z" fill="black"/>
<path d="M70.1429 20.7144H66.8096V24.0477H70.1429V20.7144Z" fill="black"/>
<path d="M33.4763 24.0476H30.1429V27.3809H33.4763V24.0476Z" fill="black"/>
<path d="M36.8098 24.0476H33.4764V27.3809H36.8098V24.0476Z" fill="black"/>
<path d="M43.4759 24.0476H40.1426V27.3809H43.4759V24.0476Z" fill="black"/>
<path d="M50.1429 24.0476H46.8096V27.3809H50.1429V24.0476Z" fill="black"/>
<path d="M63.4759 24.0476H60.1426V27.3809H63.4759V24.0476Z" fill="black"/>
<path d="M66.8094 24.0476H63.4761V27.3809H66.8094V24.0476Z" fill="black"/>
<path d="M70.1429 24.0476H66.8096V27.3809H70.1429V24.0476Z" fill="black"/>
<path d="M3.47616 27.3811H0.142822V30.7144H3.47616V27.3811Z" fill="black"/>
<path d="M13.4765 27.3811H10.1432V30.7144H13.4765V27.3811Z" fill="black"/>
<path d="M16.8098 27.3811H13.4764V30.7144H16.8098V27.3811Z" fill="black"/>
<path d="M20.1428 27.3811H16.8094V30.7144H20.1428V27.3811Z" fill="black"/>
<path d="M23.4762 27.3811H20.1428V30.7144H23.4762V27.3811Z" fill="black"/>
<path d="M26.8095 27.3811H23.4762V30.7144H26.8095V27.3811Z" fill="black"/>
<path d="M50.1429 27.3811H46.8096V30.7144H50.1429V27.3811Z" fill="black"/>
<path d="M73.4763 27.3811H70.1429V30.7144H73.4763V27.3811Z" fill="black"/>
<path d="M83.4761 27.3811H80.1427V30.7144H83.4761V27.3811Z" fill="black"/>
<path d="M90.1428 27.3811H86.8094V30.7144H90.1428V27.3811Z" fill="black"/>
<path d="M93.4761 27.3811H90.1428V30.7144H93.4761V27.3811Z" fill="black"/>
<path d="M96.8095 27.3811H93.4762V30.7144H96.8095V27.3811Z" fill="black"/>
<path d="M3.47616 30.7144H0.142822V34.0477H3.47616V30.7144Z" fill="black"/>
<path d="M10.1424 30.7144H6.80908V34.0477H10.1424V30.7144Z" fill="black"/>
<path d="M20.1428 30.7144H16.8094V34.0477H20.1428V30.7144Z" fill="black"/>
<path d="M36.8098 30.7144H33.4764V34.0477H36.8098V30.7144Z" fill="black"/>
<path d="M50.1429 30.7144H46.8096V34.0477H50.1429V30.7144Z" fill="black"/>
<path d="M63.4759 30.7144H60.1426V34.0477H63.4759V30.7144Z" fill="black"/>
<path d="M66.8094 30.7144H63.4761V34.0477H66.8094V30.7144Z" fill="black"/>
<path d="M80.1426 30.7144H76.8092V34.0477H80.1426V30.7144Z" fill="black"/>
<path d="M83.4761 30.7144H80.1427V34.0477H83.4761V30.7144Z" fill="black"/>
<path d="M90.1428 30.7144H86.8094V34.0477H90.1428V30.7144Z" fill="black"/>
<path d="M93.4761 30.7144H90.1428V34.0477H93.4761V30.7144Z" fill="black"/>
<path d="M10.1424 34.0477H6.80908V37.3811H10.1424V34.0477Z" fill="black"/>
<path d="M16.8098 34.0477H13.4764V37.3811H16.8098V34.0477Z" fill="black"/>
<path d="M20.1428 34.0477H16.8094V37.3811H20.1428V34.0477Z" fill="black"/>
<path d="M23.4762 34.0477H20.1428V37.3811H23.4762V34.0477Z" fill="black"/>
<path d="M43.4759 34.0477H40.1426V37.3811H43.4759V34.0477Z" fill="black"/>
<path d="M50.1429 34.0477H46.8096V37.3811H50.1429V34.0477Z" fill="black"/>
<path d="M63.4759 34.0477H60.1426V37.3811H63.4759V34.0477Z" fill="black"/>
<path d="M73.4763 34.0477H70.1429V37.3811H73.4763V34.0477Z" fill="black"/>
<path d="M80.1426 34.0477H76.8092V37.3811H80.1426V34.0477Z" fill="black"/>
<path d="M90.1428 34.0477H86.8094V37.3811H90.1428V34.0477Z" fill="black"/>
<path d="M10.1424 37.3811H6.80908V40.7144H10.1424V37.3811Z" fill="black"/>
<path d="M16.8098 37.3811H13.4764V40.7144H16.8098V37.3811Z" fill="black"/>
<path d="M20.1428 37.3811H16.8094V40.7144H20.1428V37.3811Z" fill="black"/>
<path d="M26.8095 37.3811H23.4762V40.7144H26.8095V37.3811Z" fill="black"/>
<path d="M33.4763 37.3811H30.1429V40.7144H33.4763V37.3811Z" fill="black"/>
<path d="M40.1428 37.3811H36.8094V40.7144H40.1428V37.3811Z" fill="black"/>
<path d="M50.1429 37.3811H46.8096V40.7144H50.1429V37.3811Z" fill="black"/>
<path d="M53.4763 37.3811H50.1429V40.7144H53.4763V37.3811Z" fill="black"/>
<path d="M60.1425 37.3811H56.8092V40.7144H60.1425V37.3811Z" fill="black"/>
<path d="M73.4763 37.3811H70.1429V40.7144H73.4763V37.3811Z" fill="black"/>
<path d="M76.8095 37.3811H73.4762V40.7144H76.8095V37.3811Z" fill="black"/>
<path d="M86.8099 37.3811H83.4766V40.7144H86.8099V37.3811Z" fill="black"/>
<path d="M96.8095 37.3811H93.4762V40.7144H96.8095V37.3811Z" fill="black"/>
<path d="M3.47616 40.7144H0.142822V44.0477H3.47616V40.7144Z" fill="black"/>
<path d="M6.80965 40.7144H3.47632V44.0477H6.80965V40.7144Z" fill="black"/>
<path d="M10.1424 40.7144H6.80908V44.0477H10.1424V40.7144Z" fill="black"/>
<path d="M13.4765 40.7144H10.1432V44.0477H13.4765V40.7144Z" fill="black"/>
<path d="M20.1428 40.7144H16.8094V44.0477H20.1428V40.7144Z" fill="black"/>
<path d="M23.4762 40.7144H20.1428V44.0477H23.4762V40.7144Z" fill="black"/>
<path d="M26.8095 40.7144H23.4762V44.0477H26.8095V40.7144Z" fill="black"/>
<path d="M46.8094 40.7144H43.4761V44.0477H46.8094V40.7144Z" fill="black"/>
<path d="M50.1429 40.7144H46.8096V44.0477H50.1429V40.7144Z" fill="black"/>
<path d="M66.8094 40.7144H63.4761V44.0477H66.8094V40.7144Z" fill="black"/>
<path d="M76.8095 40.7144H73.4762V44.0477H76.8095V40.7144Z" fill="black"/>
<path d="M80.1426 40.7144H76.8092V44.0477H80.1426V40.7144Z" fill="black"/>
<path d="M96.8095 40.7144H93.4762V44.0477H96.8095V40.7144Z" fill="black"/>
<path d="M10.1424 44.0476H6.80908V47.3809H10.1424V44.0476Z" fill="black"/>
<path d="M13.4765 44.0476H10.1432V47.3809H13.4765V44.0476Z" fill="black"/>
<path d="M33.4763 44.0476H30.1429V47.3809H33.4763V44.0476Z" fill="black"/>
<path d="M43.4759 44.0476H40.1426V47.3809H43.4759V44.0476Z" fill="black"/>
<path d="M60.1425 44.0476H56.8092V47.3809H60.1425V44.0476Z" fill="black"/>
<path d="M63.4759 44.0476H60.1426V47.3809H63.4759V44.0476Z" fill="black"/>
<path d="M73.4763 44.0476H70.1429V47.3809H73.4763V44.0476Z" fill="black"/>
<path d="M76.8095 44.0476H73.4762V47.3809H76.8095V44.0476Z" fill="black"/>
<path d="M83.4761 44.0476H80.1427V47.3809H83.4761V44.0476Z" fill="black"/>
<path d="M86.8099 44.0476H83.4766V47.3809H86.8099V44.0476Z" fill="black"/>
<path d="M90.1428 44.0476H86.8094V47.3809H90.1428V44.0476Z" fill="black"/>
<path d="M93.4761 44.0476H90.1428V47.3809H93.4761V44.0476Z" fill="black"/>
<path d="M96.8095 44.0476H93.4762V47.3809H96.8095V44.0476Z" fill="black"/>
<path d="M3.47616 47.381H0.142822V50.7143H3.47616V47.381Z" fill="black"/>
<path d="M13.4765 47.381H10.1432V50.7143H13.4765V47.381Z" fill="black"/>
<path d="M23.4762 47.381H20.1428V50.7143H23.4762V47.381Z" fill="black"/>
<path d="M33.4763 47.381H30.1429V50.7143H33.4763V47.381Z" fill="black"/>
<path d="M40.1428 47.381H36.8094V50.7143H40.1428V47.381Z" fill="black"/>
<path d="M43.4759 47.381H40.1426V50.7143H43.4759V47.381Z" fill="black"/>
<path d="M50.1429 47.381H46.8096V50.7143H50.1429V47.381Z" fill="black"/>
<path d="M53.4763 47.381H50.1429V50.7143H53.4763V47.381Z" fill="black"/>
<path d="M60.1425 47.381H56.8092V50.7143H60.1425V47.381Z" fill="black"/>
<path d="M66.8094 47.381H63.4761V50.7143H66.8094V47.381Z" fill="black"/>
<path d="M73.4763 47.381H70.1429V50.7143H73.4763V47.381Z" fill="black"/>
<path d="M76.8095 47.381H73.4762V50.7143H76.8095V47.381Z" fill="black"/>
<path d="M80.1426 47.381H76.8092V50.7143H80.1426V47.381Z" fill="black"/>
<path d="M90.1428 47.381H86.8094V50.7143H90.1428V47.381Z" fill="black"/>
<path d="M96.8095 47.381H93.4762V50.7143H96.8095V47.381Z" fill="black"/>
<path d="M16.8098 50.7144H13.4764V54.0477H16.8098V50.7144Z" fill="black"/>
<path d="M20.1428 50.7144H16.8094V54.0477H20.1428V50.7144Z" fill="black"/>
<path d="M40.1428 50.7144H36.8094V54.0477H40.1428V50.7144Z" fill="black"/>
<path d="M43.4759 50.7144H40.1426V54.0477H43.4759V50.7144Z" fill="black"/>
<path d="M46.8094 50.7144H43.4761V54.0477H46.8094V50.7144Z" fill="black"/>
<path d="M50.1429 50.7144H46.8096V54.0477H50.1429V50.7144Z" fill="black"/>
<path d="M56.8098 50.7144H53.4764V54.0477H56.8098V50.7144Z" fill="black"/>
<path d="M76.8095 50.7144H73.4762V54.0477H76.8095V50.7144Z" fill="black"/>
<path d="M80.1426 50.7144H76.8092V54.0477H80.1426V50.7144Z" fill="black"/>
<path d="M83.4761 50.7144H80.1427V54.0477H83.4761V50.7144Z" fill="black"/>
<path d="M90.1428 50.7144H86.8094V54.0477H90.1428V50.7144Z" fill="black"/>
<path d="M96.8095 50.7144H93.4762V54.0477H96.8095V50.7144Z" fill="black"/>
<path d="M6.80965 54.0476H3.47632V57.3809H6.80965V54.0476Z" fill="black"/>
<path d="M10.1424 54.0476H6.80908V57.3809H10.1424V54.0476Z" fill="black"/>
<path d="M13.4765 54.0476H10.1432V57.3809H13.4765V54.0476Z" fill="black"/>
<path d="M20.1428 54.0476H16.8094V57.3809H20.1428V54.0476Z" fill="black"/>
<path d="M23.4762 54.0476H20.1428V57.3809H23.4762V54.0476Z" fill="black"/>
<path d="M26.8095 54.0476H23.4762V57.3809H26.8095V54.0476Z" fill="black"/>
<path d="M30.1424 54.0476H26.8091V57.3809H30.1424V54.0476Z" fill="black"/>
<path d="M36.8098 54.0476H33.4764V57.3809H36.8098V54.0476Z" fill="black"/>
<path d="M43.4759 54.0476H40.1426V57.3809H43.4759V54.0476Z" fill="black"/>
<path d="M53.4763 54.0476H50.1429V57.3809H53.4763V54.0476Z" fill="black"/>
<path d="M66.8094 54.0476H63.4761V57.3809H66.8094V54.0476Z" fill="black"/>
<path d="M86.8099 54.0476H83.4766V57.3809H86.8099V54.0476Z" fill="black"/>
<path d="M3.47616 57.3811H0.142822V60.7144H3.47616V57.3811Z" fill="black"/>
<path d="M13.4765 57.3811H10.1432V60.7144H13.4765V57.3811Z" fill="black"/>
<path d="M20.1428 57.3811H16.8094V60.7144H20.1428V57.3811Z" fill="black"/>
<path d="M43.4759 57.3811H40.1426V60.7144H43.4759V57.3811Z" fill="black"/>
<path d="M63.4759 57.3811H60.1426V60.7144H63.4759V57.3811Z" fill="black"/>
<path d="M66.8094 57.3811H63.4761V60.7144H66.8094V57.3811Z" fill="black"/>
<path d="M73.4763 57.3811H70.1429V60.7144H73.4763V57.3811Z" fill="black"/>
<path d="M83.4761 57.3811H80.1427V60.7144H83.4761V57.3811Z" fill="black"/>
<path d="M90.1428 57.3811H86.8094V60.7144H90.1428V57.3811Z" fill="black"/>
<path d="M93.4761 57.3811H90.1428V60.7144H93.4761V57.3811Z" fill="black"/>
<path d="M3.47616 60.7144H0.142822V64.0477H3.47616V60.7144Z" fill="black"/>
<path d="M6.80965 60.7144H3.47632V64.0477H6.80965V60.7144Z" fill="black"/>
<path d="M10.1424 60.7144H6.80908V64.0477H10.1424V60.7144Z" fill="black"/>
<path d="M23.4762 60.7144H20.1428V64.0477H23.4762V60.7144Z" fill="black"/>
<path d="M33.4763 60.7144H30.1429V64.0477H33.4763V60.7144Z" fill="black"/>
<path d="M36.8098 60.7144H33.4764V64.0477H36.8098V60.7144Z" fill="black"/>
<path d="M40.1428 60.7144H36.8094V64.0477H40.1428V60.7144Z" fill="black"/>
<path d="M46.8094 60.7144H43.4761V64.0477H46.8094V60.7144Z" fill="black"/>
<path d="M50.1429 60.7144H46.8096V64.0477H50.1429V60.7144Z" fill="black"/>
<path d="M56.8098 60.7144H53.4764V64.0477H56.8098V60.7144Z" fill="black"/>
<path d="M60.1425 60.7144H56.8092V64.0477H60.1425V60.7144Z" fill="black"/>
<path d="M66.8094 60.7144H63.4761V64.0477H66.8094V60.7144Z" fill="black"/>
<path d="M73.4763 60.7144H70.1429V64.0477H73.4763V60.7144Z" fill="black"/>
<path d="M76.8095 60.7144H73.4762V64.0477H76.8095V60.7144Z" fill="black"/>
<path d="M86.8099 60.7144H83.4766V64.0477H86.8099V60.7144Z" fill="black"/>
<path d="M96.8095 60.7144H93.4762V64.0477H96.8095V60.7144Z" fill="black"/>
<path d="M3.47616 64.0477H0.142822V67.3811H3.47616V64.0477Z" fill="black"/>
<path d="M6.80965 64.0477H3.47632V67.3811H6.80965V64.0477Z" fill="black"/>
<path d="M26.8095 64.0477H23.4762V67.3811H26.8095V64.0477Z" fill="black"/>
<path d="M30.1424 64.0477H26.8091V67.3811H30.1424V64.0477Z" fill="black"/>
<path d="M36.8098 64.0477H33.4764V67.3811H36.8098V64.0477Z" fill="black"/>
<path d="M46.8094 64.0477H43.4761V67.3811H46.8094V64.0477Z" fill="black"/>
<path d="M53.4763 64.0477H50.1429V67.3811H53.4763V64.0477Z" fill="black"/>
<path d="M56.8098 64.0477H53.4764V67.3811H56.8098V64.0477Z" fill="black"/>
<path d="M66.8094 64.0477H63.4761V67.3811H66.8094V64.0477Z" fill="black"/>
<path d="M80.1426 64.0477H76.8092V67.3811H80.1426V64.0477Z" fill="black"/>
<path d="M83.4761 64.0477H80.1427V67.3811H83.4761V64.0477Z" fill="black"/>
<path d="M86.8099 64.0477H83.4766V67.3811H86.8099V64.0477Z" fill="black"/>
<path d="M90.1428 64.0477H86.8094V67.3811H90.1428V64.0477Z" fill="black"/>
<path d="M3.47616 67.3811H0.142822V70.7144H3.47616V67.3811Z" fill="black"/>
<path d="M6.80965 67.3811H3.47632V70.7144H6.80965V67.3811Z" fill="black"/>
<path d="M13.4765 67.3811H10.1432V70.7144H13.4765V67.3811Z" fill="black"/>
<path d="M16.8098 67.3811H13.4764V70.7144H16.8098V67.3811Z" fill="black"/>
<path d="M23.4762 67.3811H20.1428V70.7144H23.4762V67.3811Z" fill="black"/>
<path d="M26.8095 67.3811H23.4762V70.7144H26.8095V67.3811Z" fill="black"/>
<path d="M33.4763 67.3811H30.1429V70.7144H33.4763V67.3811Z" fill="black"/>
<path d="M40.1428 67.3811H36.8094V70.7144H40.1428V67.3811Z" fill="black"/>
<path d="M46.8094 67.3811H43.4761V70.7144H46.8094V67.3811Z" fill="black"/>
<path d="M63.4759 67.3811H60.1426V70.7144H63.4759V67.3811Z" fill="black"/>
<path d="M66.8094 67.3811H63.4761V70.7144H66.8094V67.3811Z" fill="black"/>
<path d="M70.1429 67.3811H66.8096V70.7144H70.1429V67.3811Z" fill="black"/>
<path d="M73.4763 67.3811H70.1429V70.7144H73.4763V67.3811Z" fill="black"/>
<path d="M76.8095 67.3811H73.4762V70.7144H76.8095V67.3811Z" fill="black"/>
<path d="M80.1426 67.3811H76.8092V70.7144H80.1426V67.3811Z" fill="black"/>
<path d="M83.4761 67.3811H80.1427V70.7144H83.4761V67.3811Z" fill="black"/>
<path d="M86.8099 67.3811H83.4766V70.7144H86.8099V67.3811Z" fill="black"/>
<path d="M90.1428 67.3811H86.8094V70.7144H90.1428V67.3811Z" fill="black"/>
<path d="M93.4761 67.3811H90.1428V70.7144H93.4761V67.3811Z" fill="black"/>
<path d="M30.1424 70.7144H26.8091V74.0477H30.1424V70.7144Z" fill="black"/>
<path d="M33.4763 70.7144H30.1429V74.0477H33.4763V70.7144Z" fill="black"/>
<path d="M36.8098 70.7144H33.4764V74.0477H36.8098V70.7144Z" fill="black"/>
<path d="M40.1428 70.7144H36.8094V74.0477H40.1428V70.7144Z" fill="black"/>
<path d="M43.4759 70.7144H40.1426V74.0477H43.4759V70.7144Z" fill="black"/>
<path d="M46.8094 70.7144H43.4761V74.0477H46.8094V70.7144Z" fill="black"/>
<path d="M56.8098 70.7144H53.4764V74.0477H56.8098V70.7144Z" fill="black"/>
<path d="M60.1425 70.7144H56.8092V74.0477H60.1425V70.7144Z" fill="black"/>
<path d="M63.4759 70.7144H60.1426V74.0477H63.4759V70.7144Z" fill="black"/>
<path d="M66.8094 70.7144H63.4761V74.0477H66.8094V70.7144Z" fill="black"/>
<path d="M70.1429 70.7144H66.8096V74.0477H70.1429V70.7144Z" fill="black"/>
<path d="M83.4761 70.7144H80.1427V74.0477H83.4761V70.7144Z" fill="black"/>
<path d="M86.8099 70.7144H83.4766V74.0477H86.8099V70.7144Z" fill="black"/>
<path d="M30.1424 74.0477H26.8091V77.3811H30.1424V74.0477Z" fill="black"/>
<path d="M33.4763 74.0477H30.1429V77.3811H33.4763V74.0477Z" fill="black"/>
<path d="M40.1428 74.0477H36.8094V77.3811H40.1428V74.0477Z" fill="black"/>
<path d="M46.8094 74.0477H43.4761V77.3811H46.8094V74.0477Z" fill="black"/>
<path d="M53.4763 74.0477H50.1429V77.3811H53.4763V74.0477Z" fill="black"/>
<path d="M56.8098 74.0477H53.4764V77.3811H56.8098V74.0477Z" fill="black"/>
<path d="M66.8094 74.0477H63.4761V77.3811H66.8094V74.0477Z" fill="black"/>
<path d="M70.1429 74.0477H66.8096V77.3811H70.1429V74.0477Z" fill="black"/>
<path d="M76.8095 74.0477H73.4762V77.3811H76.8095V74.0477Z" fill="black"/>
<path d="M83.4761 74.0477H80.1427V77.3811H83.4761V74.0477Z" fill="black"/>
<path d="M86.8099 74.0477H83.4766V77.3811H86.8099V74.0477Z" fill="black"/>
<path d="M30.1424 77.381H26.8091V80.7143H30.1424V77.381Z" fill="black"/>
<path d="M46.8094 77.381H43.4761V80.7143H46.8094V77.381Z" fill="black"/>
<path d="M56.8098 77.381H53.4764V80.7143H56.8098V77.381Z" fill="black"/>
<path d="M63.4759 77.381H60.1426V80.7143H63.4759V77.381Z" fill="black"/>
<path d="M66.8094 77.381H63.4761V80.7143H66.8094V77.381Z" fill="black"/>
<path d="M70.1429 77.381H66.8096V80.7143H70.1429V77.381Z" fill="black"/>
<path d="M83.4761 77.381H80.1427V80.7143H83.4761V77.381Z" fill="black"/>
<path d="M93.4761 77.381H90.1428V80.7143H93.4761V77.381Z" fill="black"/>
<path d="M30.1424 80.7144H26.8091V84.0477H30.1424V80.7144Z" fill="black"/>
<path d="M40.1428 80.7144H36.8094V84.0477H40.1428V80.7144Z" fill="black"/>
<path d="M43.4759 80.7144H40.1426V84.0477H43.4759V80.7144Z" fill="black"/>
<path d="M46.8094 80.7144H43.4761V84.0477H46.8094V80.7144Z" fill="black"/>
<path d="M53.4763 80.7144H50.1429V84.0477H53.4763V80.7144Z" fill="black"/>
<path d="M56.8098 80.7144H53.4764V84.0477H56.8098V80.7144Z" fill="black"/>
<path d="M60.1425 80.7144H56.8092V84.0477H60.1425V80.7144Z" fill="black"/>
<path d="M66.8094 80.7144H63.4761V84.0477H66.8094V80.7144Z" fill="black"/>
<path d="M70.1429 80.7144H66.8096V84.0477H70.1429V80.7144Z" fill="black"/>
<path d="M73.4763 80.7144H70.1429V84.0477H73.4763V80.7144Z" fill="black"/>
<path d="M76.8095 80.7144H73.4762V84.0477H76.8095V80.7144Z" fill="black"/>
<path d="M80.1426 80.7144H76.8092V84.0477H80.1426V80.7144Z" fill="black"/>
<path d="M83.4761 80.7144H80.1427V84.0477H83.4761V80.7144Z" fill="black"/>
<path d="M86.8099 80.7144H83.4766V84.0477H86.8099V80.7144Z" fill="black"/>
<path d="M93.4761 80.7144H90.1428V84.0477H93.4761V80.7144Z" fill="black"/>
<path d="M30.1424 84.0477H26.8091V87.3811H30.1424V84.0477Z" fill="black"/>
<path d="M33.4763 84.0477H30.1429V87.3811H33.4763V84.0477Z" fill="black"/>
<path d="M40.1428 84.0477H36.8094V87.3811H40.1428V84.0477Z" fill="black"/>
<path d="M50.1429 84.0477H46.8096V87.3811H50.1429V84.0477Z" fill="black"/>
<path d="M56.8098 84.0477H53.4764V87.3811H56.8098V84.0477Z" fill="black"/>
<path d="M63.4759 84.0477H60.1426V87.3811H63.4759V84.0477Z" fill="black"/>
<path d="M66.8094 84.0477H63.4761V87.3811H66.8094V84.0477Z" fill="black"/>
<path d="M73.4763 84.0477H70.1429V87.3811H73.4763V84.0477Z" fill="black"/>
<path d="M80.1426 84.0477H76.8092V87.3811H80.1426V84.0477Z" fill="black"/>
<path d="M93.4761 84.0477H90.1428V87.3811H93.4761V84.0477Z" fill="black"/>
<path d="M36.8098 87.3811H33.4764V90.7144H36.8098V87.3811Z" fill="black"/>
<path d="M43.4759 87.3811H40.1426V90.7144H43.4759V87.3811Z" fill="black"/>
<path d="M50.1429 87.3811H46.8096V90.7144H50.1429V87.3811Z" fill="black"/>
<path d="M56.8098 87.3811H53.4764V90.7144H56.8098V87.3811Z" fill="black"/>
<path d="M63.4759 87.3811H60.1426V90.7144H63.4759V87.3811Z" fill="black"/>
<path d="M70.1429 87.3811H66.8096V90.7144H70.1429V87.3811Z" fill="black"/>
<path d="M73.4763 87.3811H70.1429V90.7144H73.4763V87.3811Z" fill="black"/>
<path d="M80.1426 87.3811H76.8092V90.7144H80.1426V87.3811Z" fill="black"/>
<path d="M83.4761 87.3811H80.1427V90.7144H83.4761V87.3811Z" fill="black"/>
<path d="M90.1428 87.3811H86.8094V90.7144H90.1428V87.3811Z" fill="black"/>
<path d="M93.4761 87.3811H90.1428V90.7144H93.4761V87.3811Z" fill="black"/>
<path d="M96.8095 87.3811H93.4762V90.7144H96.8095V87.3811Z" fill="black"/>
<path d="M33.4763 90.7144H30.1429V94.0477H33.4763V90.7144Z" fill="black"/>
<path d="M46.8094 90.7144H43.4761V94.0477H46.8094V90.7144Z" fill="black"/>
<path d="M53.4763 90.7144H50.1429V94.0477H53.4763V90.7144Z" fill="black"/>
<path d="M80.1426 90.7144H76.8092V94.0477H80.1426V90.7144Z" fill="black"/>
<path d="M86.8099 90.7144H83.4766V94.0477H86.8099V90.7144Z" fill="black"/>
<path d="M90.1428 90.7144H86.8094V94.0477H90.1428V90.7144Z" fill="black"/>
<path d="M96.8095 90.7144H93.4762V94.0477H96.8095V90.7144Z" fill="black"/>
<path d="M30.1424 94.0477H26.8091V97.381H30.1424V94.0477Z" fill="black"/>
<path d="M33.4763 94.0477H30.1429V97.381H33.4763V94.0477Z" fill="black"/>
<path d="M36.8098 94.0477H33.4764V97.381H36.8098V94.0477Z" fill="black"/>
<path d="M40.1428 94.0477H36.8094V97.381H40.1428V94.0477Z" fill="black"/>
<path d="M43.4759 94.0477H40.1426V97.381H43.4759V94.0477Z" fill="black"/>
<path d="M46.8094 94.0477H43.4761V97.381H46.8094V94.0477Z" fill="black"/>
<path d="M56.8098 94.0477H53.4764V97.381H56.8098V94.0477Z" fill="black"/>
<path d="M60.1425 94.0477H56.8092V97.381H60.1425V94.0477Z" fill="black"/>
<path d="M63.4759 94.0477H60.1426V97.381H63.4759V94.0477Z" fill="black"/>
<path d="M66.8094 94.0477H63.4761V97.381H66.8094V94.0477Z" fill="black"/>
<path d="M70.1429 94.0477H66.8096V97.381H70.1429V94.0477Z" fill="black"/>
<path d="M83.4761 94.0477H80.1427V97.381H83.4761V94.0477Z" fill="black"/>
<path d="M86.8099 94.0477H83.4766V97.381H86.8099V94.0477Z" fill="black"/>
<path d="M19.9762 0.714355H3.64282H0.142822V4.21435V20.5477V24.0477H3.64282H19.9762H23.4762V20.5477V4.21435V0.714355H19.9762ZM19.9762 20.5477H3.64282V4.21435H19.9762V20.5477Z" fill="black"/>
<path d="M93.3095 0.714355H76.9762H73.4762V4.21435V20.5477V24.0477H76.9762H93.3095H96.8095V20.5477V4.21435V0.714355H93.3095ZM93.3095 20.5477H76.9762V4.21435H93.3095V20.5477Z" fill="black"/>
<path d="M19.9762 74.0477H3.64282H0.142822V77.5477V93.8811V97.3811H3.64282H19.9762H23.4762V93.8811V77.5477V74.0477H19.9762ZM19.9762 93.8811H3.64282V77.5477H19.9762V93.8811Z" fill="black"/>
<path d="M16.8091 7.3811H6.80908V17.3811H16.8091V7.3811Z" fill="black"/>
<path d="M90.1427 7.3811H80.1427V17.3811H90.1427V7.3811Z" fill="black"/>
<path d="M16.8091 80.7144H6.80908V90.7144H16.8091V80.7144Z" fill="black"/>
<rect x="26.9999" y="27" width="44" height="44" fill="white"/>
<path fill-rule="evenodd" clip-rule="evenodd" d="M44.5819 51.2167C46.8483 48.4789 50.4836 44.608 52.9856 42.1059C55.4877 39.6038 58.3071 38.6701 58.7785 39.1415C59.2499 39.6129 58.3161 42.4323 55.8141 44.9343C53.312 47.4364 49.441 51.0717 46.7033 53.338C43.9655 55.6044 42.8686 55.7585 42.515 55.405C42.1615 55.0514 42.3156 53.9545 44.5819 51.2167Z" fill="black"/>
<path fill-rule="evenodd" clip-rule="evenodd" d="M41.371 40.9927C41.6389 40.7249 42.035 40.6314 42.3944 40.7512L53.4753 44.4448L56.8433 55.8961C56.9466 56.2472 56.8499 56.6266 56.5911 56.8854L55.2431 58.2334L48.9149 49.0052L39.6867 42.677L41.371 40.9927Z" fill="black"/>
<path fill-rule="evenodd" clip-rule="evenodd" d="M39.9935 50.8555C40.2418 50.6072 40.6023 50.5073 40.9431 50.5925L46.0507 51.8694L47.3276 56.977C47.4128 57.3177 47.3129 57.6782 47.0645 57.9266L46.4042 58.5869L43.5758 54.3443L39.3332 51.5158L39.9935 50.8555Z" fill="black"/>
</svg>
